<svg version="1.2" xmlns="http://www.w3.org/2000/svg" viewBox="0 0 800 800" width="800" height="800">
	<title>R-logo-ai</title>
	<style>
		.s0 { fill: #ffffff } 
		.s1 { fill: #000000 } 
	</style>
	<g id="_Artboards_">
		<path id="画板 1" class="s0" d="m0 800h800v-800h-800z"/>
	</g>
	<g id="图层 1">
		<g id="&lt;Group&gt;">
			<path id="&lt;Path&gt;" class="s1" d="m139.2 281.8h-49.1v104.1h36.5c-2.9-35.9 1.5-71.9 12.6-104.1z"/>
			<path id="&lt;Path&gt;" class="s1" d="m207.5 324.6c2.3 21.5 7.3 41.9 15.2 61.3h63.7v-104.1h-77.6q-3.7 20-1.3 42.8z"/>
			<path id="&lt;Path&gt;" class="s1" d="m557.4 288.6l-11.1 33.6c-0.3 0.8-0.5 1.5-0.7 2.3-0.7 2.1-1.4 4.6-2.6 7.1-6.1 13.6-16 24.8-29.4 33.4v26.2 1.5h1.3 195v-104.1z"/>
			<path id="&lt;Path&gt;" class="s1" d="m164.2 342c11.2 64.9 43.9 118.5 90.8 163.6 44.4 42.7 95.9 72.6 157.5 82.5 42.2 6.8 82.8 2.7 119.9-20.7 14.4-9 27.3-19.7 34.3-35.9 1.1-2.5 2.4-6.6 1.2-8.1-6.1-7.4-12.9-14.2-19.4-21.2-1.7 1.2-2.4 1.6-2.9 2.2-12.5 15.7-27 26.9-43 34.4-45.3-60-128.9-171.5-157.3-209.3-0.2-32.4-0.1-64.8-0.1-97.2 0-5.4 0.2-5.6 5.7-5.6 20.6-0.1 41.2-0.4 61.8 0.1 9.5 0.2 19.1 1.5 28.5 3.4 9 1.8 16.5 6.6 21.7 14.7 5.6 8.8 9 18.2 9.7 28.6 0.1 2-0.1 5 3.5 3.7 10.2-3.9 20.5-7.6 29.2-14.4 12.1-9.2 17.4-25.6 12.6-39.7-5.1-14.7-16.6-22.7-30.5-27.6-16.3-5.8-33.5-7.6-50.6-7.8-44.7-0.5-89.5-0.2-134.2-0.2-5.8-0.1-6.1 0.2-6.1 6.1q0 23.7 0 47.3 0 0.1 0 0.2 0 3.2 0 6.4 0 67 0 133.9 0 1.3 0.1 2.6 0 7.7 0 15.4c0 1.7 0.3 3.4 0.5 5 0.5 0.2 22.6-21 34.7-33.2 1.5 2 90.7 124.1 131.3 178.5q-13 1.5-26.9 1c-35.5-1.4-67.8-11.7-97.3-28.4-0.1-21.7-0.1-58.9 0.2-65.7 0.6-14.8 0.9-29.5 4.5-44.1q0.2-0.8 0.4-1.7-5.8-7.5-12.1-15.4c-3.9 3.9-15.1 19.2-18.8 22.9 0 0-16.2 22.7-16.1 33.6 0.1 5.1 0 22.9-0.1 41-52.3-43.7-87.8-97.9-95.2-167.7-4.5-42.1 5.8-80.3 37.4-110.7 6.4-6.1 13.9-11.2 22-17.6-4.9-5.3-9.1-10.7-14.1-15-2.3-2-6.9-3.1-9.7-2.2-25 7.6-43.4 23.4-56.2 46.3-20.4 36.6-23.9 75.7-16.9 116z"/>
			<path id="&lt;Path&gt;" class="s1" d="m216 554.9c96 87.2 226.5 76.8 297.6 31.4-2.1 0.4-3.1 0.4-4.1 0.8-46.5 16.8-93.1 14.1-138.8-1.9-89.8-31.5-154.2-92-194.1-178-17.8-38.2-26.5-78.7-21.4-121.1 1.8-15.4 6.1-30.5 8.8-43.6-51.4 84.1-46.9 222.6 52 312.4z"/>
			<path id="&lt;Path&gt;" class="s1" d="m517.3 208.6c10.2 11.4 13.3 25.2 10.1 39.7-1.8 8.1-7.2 15.2-13.7 20.9-11.6 10.2-25.3 16.8-39.7 22-20 7.2-40.1 13.6-60.2 20.6-17.5 6.1-34.5 13.4-50.2 23.1 4.6 5.7 9.9 12.5 15.8 19.9q5.1-4.1 11.1-7.5c9.2-5.2 19.1-9.2 28.8-13.3 13.9-5.9 27.9-11.3 41.8-17.2 19.1-8 37.6-16.7 53.7-30.2 22.3-18.7 28-45.6 13.8-70.2-6-10.5-15.3-17.5-27.6-22.2 6 5.3 11.7 9.3 16.3 14.4z"/>
			<path id="&lt;Path&gt;" class="s1" d="m479.7 378.7c-14.5 2.7-29.1 5.1-43.7 7.6-3.3 0.6-6.6 1.4-10.8 2.3 4.3 5 7.7 9.3 11.3 13.4 24.1 27.6 48.2 55.3 72.5 82.8 1.6 1.8 4.6 3.1 7.1 3.2 6.7 0.2 13.6-0.4 20.4-0.4 12.8 0.1 25.7 0.4 38.6 0.5 1.3 0 2.7-0.4 4.7-0.6-1-1.6-1.6-2.6-2.3-3.5-6.6-7.6-13.3-15.1-20-22.7-10.5-12.2-21-24.4-31.6-36.5-12.4-14.4-25-28.6-37.4-43-2.4-2.9-5-3.8-8.8-3.1z"/>
			<path id="&lt;Path&gt;" class="s1" d="m518 297.8c-15.7 12.9-34.1 20.8-53 27.7-13 4.8-26.2 9.3-39.2 14.3-5.7 2.2-11.2 5.3-16.7 8.2-8.3 4.2-16.3 8.9-23.5 14.5q3.1 4 6.4 8.1c4.1-2.3 8.4-4.3 12.8-6.1 17.9-7.5 36.5-13.4 54.7-20.2 14.2-5.3 28.7-10.3 42.5-16.7 21.6-10.1 34.3-27.5 37.9-51.3 0.4-2.8 0.4-5.8 0.6-8.7-1.1 0.3-1.4 0.5-1.5 0.9-3.7 12.2-11.4 21.4-21 29.3z"/>
			<path id="&lt;Path&gt;" class="s1" d="m531.4 326.3c1.2-2.5 1.9-5.4 2.8-8.1-11.6 13.3-25.5 22.9-41.6 29-11.6 4.3-23.7 7.7-35.6 11.1-20.1 5.7-40.5 10.7-59.7 19q2.4 3.1 4.9 6.2c12.2-3.1 24.7-5.1 37.1-7.6 22.3-4.5 44.8-8.2 64.8-20.1 12.1-7.1 21.5-16.6 27.3-29.5z"/>
		</g>
	</g>
</svg>